<svg width="53.000488" height="41.239746" viewBox="0 0 53.0005 41.2397" fill="none" xmlns="http://www.w3.org/2000/svg" xmlns:xlink="http://www.w3.org/1999/xlink">
	<desc>
			Created with Pixso.
	</desc>
	<defs/>
	<path id="Vector" d="M52.89 28.34C52.56 26.38 51.29 18.1 51.17 13.43C51.19 11.45 50.72 10.17 49.77 9.61C49.04 9.19 48.09 9.25 47.17 9.78C46.58 10.12 46.09 10.69 45.68 11.51C45.61 11.39 45.53 11.27 45.45 11.15C45.11 10.6 44.76 10.03 44.43 9.49C43.64 8.2 42.82 6.87 41.93 5.61C41.82 5.45 41.7 5.28 41.58 5.1C40.43 3.47 39.14 1.61 38.12 0.84C37 -0.01 35.8 -0.23 34.81 0.23C34.39 0.43 34.04 0.74 33.8 1.12C33.75 1.1 33.7 1.07 33.64 1.05C32.52 0.6 31.25 0.7 30.4 1.3C29.68 1.81 29.31 2.63 29.35 3.62C28.89 3.86 28.27 4.31 27.83 5.07C27.27 6.04 27.14 7.24 27.43 8.65C27.02 9.05 26.71 9.53 26.5 10.01C26.28 9.53 25.97 9.05 25.56 8.65C25.85 7.24 25.72 6.04 25.16 5.07C24.72 4.31 24.1 3.86 23.64 3.62C23.68 2.63 23.31 1.81 22.59 1.3C21.74 0.7 20.47 0.6 19.35 1.05C19.29 1.07 19.24 1.1 19.19 1.12C18.95 0.74 18.6 0.43 18.18 0.23C17.19 -0.23 15.99 -0.01 14.87 0.84C13.85 1.61 12.56 3.47 11.41 5.1C11.29 5.28 11.17 5.45 11.06 5.61C10.17 6.87 9.35 8.2 8.56 9.49C8.23 10.04 7.88 10.6 7.54 11.15C7.46 11.27 7.38 11.39 7.31 11.51C6.9 10.69 6.41 10.12 5.82 9.78C4.9 9.25 3.95 9.19 3.23 9.61C2.27 10.17 1.8 11.45 1.82 13.43C1.7 18.09 0.43 26.38 0.1 28.34C-0.1 29.52 -0.01 30.62 0.36 31.7C1.11 33.85 4.06 38.4 5.76 40.93L7.04 40.07C4.26 35.94 2.31 32.62 1.81 31.19C1.53 30.37 1.46 29.52 1.62 28.6C1.95 26.61 3.24 18.2 3.36 13.46C3.36 13.45 3.36 13.44 3.36 13.43C3.34 11.48 3.85 11.03 4 10.94C4.35 10.74 4.89 11.02 5.05 11.11C5.57 11.41 6.02 12.18 6.39 13.4C7.52 17.55 7.78 21.98 7.49 26.26C9.87 25.78 12.17 27.48 13.72 29.12C12.41 27.54 10.22 25.58 8 25.72C8.51 21.78 8.48 17.62 7.75 13.7C7.76 13.68 7.78 13.66 7.79 13.64L8.09 13.16C8.36 12.74 8.6 12.35 8.84 11.97C9.19 11.41 9.54 10.85 9.87 10.3C10.65 9.03 11.46 7.72 12.32 6.49C12.43 6.33 12.55 6.16 12.67 5.99C13.65 4.6 14.98 2.69 15.8 2.07C16.45 1.58 17.08 1.41 17.53 1.62C17.82 1.76 18.24 2.23 17.78 4.32C16.76 8.86 14.01 12.98 11.61 16.92C14.37 13.15 19.07 7.91 19.4 2.84C19.45 2.78 19.65 2.59 19.92 2.48C20.55 2.23 21.28 2.26 21.7 2.56C21.99 2.76 22.12 3.09 22.1 3.57C22.1 3.67 22.07 3.87 22.05 3.98C22.05 3.98 22.05 3.99 22.05 4C22.05 4 22.05 4 22.05 4C21.08 8.62 19.05 12.94 16.9 17.11C19.25 13.26 21.49 9.26 22.84 4.93C23.4 5.19 24.68 6.08 23.96 8.73C23.95 8.74 23.95 8.75 23.95 8.75C23.05 12.1 21.77 15.34 20.32 18.48C21.93 15.72 23.42 12.85 24.6 9.87C25.38 10.73 25.51 12.15 25.52 12.25C25.58 13.64 25.19 16.84 21.87 22.78C20.9 24.51 21.64 25.88 22.36 27.2C22.86 28.11 23.42 29.15 23.61 30.53C23.94 32.92 22.66 36.99 20.5 40.41L21.8 41.23C24.17 37.47 25.51 33.08 25.13 30.32C24.91 28.66 24.24 27.44 23.71 26.46C22.98 25.12 22.68 24.48 23.21 23.53C24.99 20.35 25.97 17.88 26.5 16.01C27.02 17.88 28.01 20.35 29.78 23.53C30.31 24.48 30.01 25.12 29.28 26.46C28.75 27.44 28.09 28.66 27.86 30.32C27.48 33.08 28.82 37.47 31.19 41.23L32.49 40.41C30.33 36.99 29.06 32.92 29.38 30.53C29.57 29.15 30.14 28.11 30.63 27.2C31.35 25.88 32.09 24.51 31.12 22.78C27.8 16.84 27.41 13.64 27.47 12.25C27.48 12.15 27.61 10.73 28.39 9.87C29.58 12.85 31.06 15.72 32.67 18.48C31.23 15.34 29.94 12.1 29.04 8.75C29.04 8.75 29.04 8.74 29.04 8.73C28.31 6.07 29.6 5.18 30.15 4.93C31.5 9.26 33.74 13.26 36.1 17.11C33.94 12.94 31.12 5.51 30.89 3.57C30.83 3.1 31 2.76 31.29 2.56C31.71 2.26 32.44 2.23 33.07 2.48C33.35 2.59 33.55 2.79 33.59 2.84C33.92 7.91 38.62 13.15 41.38 16.92C38.84 12.75 34.96 7.49 34.96 2.36C34.96 2.36 34.96 2.36 34.96 2.36C34.99 2.04 35.18 1.76 35.47 1.62C35.91 1.41 36.54 1.58 37.19 2.07C38.01 2.69 39.35 4.6 40.32 5.99C40.44 6.16 40.56 6.33 40.67 6.5C41.53 7.72 42.34 9.03 43.12 10.29C43.45 10.84 43.8 11.41 44.15 11.97C44.39 12.34 44.62 12.72 44.88 13.14L45.2 13.64C45.21 13.66 45.23 13.68 45.24 13.7C44.51 17.62 44.49 21.78 44.99 25.72C42.77 25.58 40.58 27.54 39.27 29.12C40.82 27.48 43.12 25.78 45.5 26.26C45.21 21.98 45.47 17.55 46.6 13.4C46.97 12.18 47.42 11.41 47.94 11.11C48.1 11.02 48.64 10.74 48.99 10.94C49.15 11.03 49.65 11.48 49.63 13.43C49.63 13.44 49.63 13.45 49.63 13.46C49.75 18.21 51.04 26.61 51.37 28.6C51.53 29.52 51.47 30.37 51.18 31.19C50.68 32.62 48.73 35.94 45.95 40.07L47.23 40.93C48.93 38.4 51.88 33.85 52.63 31.7C53.01 30.62 53.09 29.52 52.89 28.34Z" fill="#24BB77" fill-opacity="1.000000" fill-rule="nonzero"/>
</svg>
